<svg width="420" height="160" viewBox="0 0 420 160" fill="none" xmlns="http://www.w3.org/2000/svg">
  <rect x="10" y="60" width="60" height="40" rx="8" fill="#2563eb" fill-opacity="0.12" stroke="#2563eb" stroke-width="2"/>
  <text x="40" y="85" text-anchor="middle" fill="#2563eb" font-size="14" font-weight="bold">EEG</text>
  <rect x="90" y="50" width="60" height="60" rx="10" fill="#2563eb" fill-opacity="0.18" stroke="#2563eb" stroke-width="2"/>
  <text x="120" y="80" text-anchor="middle" fill="#143061" font-size="13">Conv1D</text>
  <rect x="170" y="60" width="40" height="40" rx="8" fill="#2563eb" fill-opacity="0.12" stroke="#2563eb" stroke-width="2"/>
  <text x="190" y="85" text-anchor="middle" fill="#143061" font-size="13">Pool</text>
  <rect x="230" y="60" width="40" height="40" rx="8" fill="#2563eb" fill-opacity="0.12" stroke="#2563eb" stroke-width="2"/>
  <text x="250" y="85" text-anchor="middle" fill="#143061" font-size="13">Noise</text>
  <rect x="290" y="60" width="40" height="40" rx="8" fill="#2563eb" fill-opacity="0.12" stroke="#2563eb" stroke-width="2"/>
  <text x="310" y="85" text-anchor="middle" fill="#143061" font-size="13">Dropout</text>
  <rect x="350" y="60" width="60" height="40" rx="8" fill="#2563eb" fill-opacity="0.18" stroke="#2563eb" stroke-width="2"/>
  <text x="380" y="85" text-anchor="middle" fill="#143061" font-size="13">Dense</text>
  <text x="210" y="30" text-anchor="middle" fill="#143061" font-size="15" font-weight="bold">CNN Model Architecture</text>
  <polyline points="70,80 90,80" fill="none" stroke="#2563eb" stroke-width="2" marker-end="url(#arrow)"/>
  <polyline points="150,80 170,80" fill="none" stroke="#2563eb" stroke-width="2" marker-end="url(#arrow)"/>
  <polyline points="210,80 230,80" fill="none" stroke="#2563eb" stroke-width="2" marker-end="url(#arrow)"/>
  <polyline points="270,80 290,80" fill="none" stroke="#2563eb" stroke-width="2" marker-end="url(#arrow)"/>
  <polyline points="330,80 350,80" fill="none" stroke="#2563eb" stroke-width="2" marker-end="url(#arrow)"/>
  <defs>
    <marker id="arrow" markerWidth="10" markerHeight="10" refX="7" refY="3" orient="auto" markerUnits="strokeWidth">
      <path d="M0,0 L0,6 L9,3 z" fill="#2563eb" />
    </marker>
  </defs>
</svg>
